# Blender v2.79 (sub 0) OBJ File: 'polyarctic_export_OBJ.blend'
# www.blender.org
mtllib arctic_branch02_m.mtl
o arctic_branch_02_CUtree.014
v 0.056926 0.074569 0.520885
v 0.054928 0.050917 0.527701
v 0.030863 0.054231 0.532144
v 0.032861 0.077883 0.525327
v 0.005526 -0.000053 0.256870
v -0.005048 -0.013223 0.260216
v -0.016492 -0.002305 0.267021
v -0.005918 0.010865 0.263674
v -0.052168 0.015285 0.135687
v -0.063454 0.002352 0.137042
v -0.075781 0.013564 0.141376
v -0.064495 0.026497 0.140020
v -0.094451 0.053241 -0.131115
v -0.097824 0.049510 -0.131111
v -0.101415 0.052757 -0.129750
v -0.098043 0.056488 -0.129753
v -0.028120 -0.011690 -0.012555
v -0.018116 0.001058 -0.006735
v -0.006268 -0.010455 -0.001885
v -0.016272 -0.023203 -0.007704
v 0.057584 -0.004291 -0.095995
v 0.067924 0.008549 -0.091027
v 0.080740 -0.002698 -0.088632
v 0.070400 -0.015538 -0.093600
v 0.103328 0.055309 -0.300757
v 0.106233 0.058897 -0.298764
v 0.110213 0.055837 -0.299055
v 0.107308 0.052248 -0.301048
v 0.069812 0.011833 -0.353498
v 0.056301 0.001910 -0.357426
v 0.046071 0.015758 -0.357227
v 0.059582 0.025682 -0.353298
v 0.076971 0.051996 -0.511660
v 0.073097 0.049320 -0.513428
v 0.069953 0.053035 -0.512160
v 0.073827 0.055711 -0.510392
v 0.012832 0.021072 0.323535
v 0.014090 0.022959 0.332787
v 0.011958 0.000682 0.337508
v 0.010707 -0.001118 0.328237
v -0.011793 0.001544 0.330648
v -0.010628 0.003353 0.339927
v -0.009082 0.024682 0.330576
v 0.003323 -0.005446 0.126739
v 0.001298 -0.026060 0.132559
v 0.000907 -0.026459 0.123040
v -0.019871 -0.024208 0.123702
v -0.019567 -0.023797 0.133223
v -0.017343 -0.002942 0.132161
v -0.017654 -0.003438 0.122643
v -0.002883 0.001152 -0.081701
v -0.003822 0.000959 -0.072241
v -0.005800 -0.018056 -0.072911
v -0.004848 -0.017778 -0.082368
v -0.024728 -0.016020 -0.074840
v -0.023691 -0.015754 -0.084289
v -0.022238 0.003086 -0.078897
v 0.044420 0.003770 -0.280938
v 0.042356 0.002357 -0.271722
v 0.040576 -0.014802 -0.272336
v 0.043305 -0.013201 -0.281382
v 0.026887 -0.011992 -0.285494
v 0.023902 -0.012928 -0.276367
v 0.026838 0.004592 -0.280405
v -0.059157 0.029653 -0.004138
v -0.057982 0.028312 0.005227
v -0.069581 0.015598 0.004869
v -0.070764 0.016941 -0.004495
v -0.083303 0.028298 -0.001283
v -0.082113 0.026953 0.008080
v -0.071105 0.040339 0.003756
v 0.073862 0.018007 -0.205981
v 0.072231 0.015438 -0.196946
v 0.083264 0.029457 -0.195989
v 0.095977 0.017550 -0.192042
v 0.097620 0.020122 -0.201076
v 0.087403 0.007386 -0.206550
v 0.085759 0.004816 -0.197517
v 0.075286 0.017483 -0.436562
v 0.062211 0.008659 -0.444940
v 0.061302 0.006400 -0.435791
v 0.050789 0.019854 -0.433508
v 0.051691 0.022107 -0.442656
v 0.065222 0.032068 -0.438850
v 0.064318 0.029802 -0.429707
v -0.011865 -0.014391 -0.181070
v -0.010118 -0.014289 -0.188053
v -0.008249 0.003723 -0.187414
v -0.009989 0.003685 -0.180429
v 0.008645 0.001755 -0.180945
v 0.005927 -0.016344 -0.178088
v 0.007617 -0.016234 -0.185081
v 0.032061 0.024184 0.426489
v 0.034825 0.027415 0.438720
v 0.032018 0.044560 0.411512
v 0.034567 0.047631 0.422705
v 0.010964 0.050109 0.423655
v 0.008512 0.046999 0.412271
v 0.008795 0.027171 0.429911
v 0.011439 0.030413 0.442160
vt 0.118847 0.175511
vt 0.100412 0.175377
vt 0.100421 0.173439
vt 0.118832 0.173398
vt 0.138977 0.178038
vt 0.128581 0.177875
vt 0.129829 0.175577
vt 0.139006 0.175651
vt 0.119257 0.177616
vt 0.100413 0.177381
vt 0.099537 0.173444
vt 0.080996 0.173482
vt 0.080997 0.171645
vt 0.099963 0.171443
vt 0.129918 0.173283
vt 0.139011 0.173264
vt 0.118751 0.179720
vt 0.099913 0.179381
vt 0.128929 0.171003
vt 0.138994 0.170879
vt 0.099528 0.175369
vt 0.080904 0.175293
vt 0.080973 0.178806
vt 0.080438 0.177050
vt 0.099487 0.177370
vt 0.080050 0.178846
vt 0.070525 0.178633
vt 0.070993 0.176921
vt 0.080078 0.173469
vt 0.070890 0.173564
vt 0.070510 0.171819
vt 0.080087 0.171649
vt 0.071002 0.175266
vt 0.080022 0.175265
vt 0.060500 0.173667
vt 0.052659 0.172953
vt 0.052628 0.171257
vt 0.060228 0.172018
vt 0.164706 0.062143
vt 0.177637 0.062285
vt 0.177634 0.063898
vt 0.164690 0.063791
vt 0.164682 0.067081
vt 0.177629 0.067033
vt 0.177625 0.068675
vt 0.164687 0.068730
vt 0.164679 0.065449
vt 0.177631 0.065464
vt 0.191248 0.062173
vt 0.203880 0.064518
vt 0.203813 0.064996
vt 0.190684 0.063810
vt 0.191130 0.065485
vt 0.203791 0.065477
vt 0.203813 0.065957
vt 0.191136 0.067113
vt 0.095468 0.051787
vt 0.105029 0.053064
vt 0.104994 0.053514
vt 0.095790 0.053323
vt 0.190248 0.067144
vt 0.190319 0.068796
vt 0.190333 0.062112
vt 0.190197 0.065488
vt 0.072416 0.052547
vt 0.084802 0.052913
vt 0.084998 0.054669
vt 0.072738 0.054001
vt 0.072782 0.051104
vt 0.085054 0.051138
vt 0.073193 0.049518
vt 0.085346 0.049476
vt 0.085138 0.056338
vt 0.073038 0.055733
vt 0.105010 0.053965
vt 0.095794 0.054750
vt 0.096085 0.050333
vt 0.105113 0.052626
vt 0.094982 0.054747
vt 0.095006 0.056338
vt 0.105074 0.054407
vt 0.095927 0.056276
vt 0.094988 0.053305
vt 0.095242 0.050221
vt 0.044767 0.173225
vt 0.037069 0.174120
vt 0.036979 0.173639
vt 0.044093 0.171713
vt 0.060331 0.178531
vt 0.052665 0.178279
vt 0.052696 0.176508
vt 0.060906 0.176920
vt 0.052696 0.174702
vt 0.060613 0.175248
vt 0.203880 0.066445
vt 0.191252 0.068743
vt 0.044288 0.176198
vt 0.037061 0.175103
vt 0.037097 0.174616
vt 0.044385 0.174743
vt 0.045022 0.177904
vt 0.045140 0.176272
vt 0.044050 0.177818
vt 0.036951 0.175584
vt 0.045170 0.174768
vt 0.045050 0.171577
vt 0.070349 0.175266
vt 0.061523 0.175243
vt 0.061389 0.173662
vt 0.070190 0.173577
vt 0.850412 0.425377
vt 0.850413 0.427381
vt 0.849487 0.427370
vt 0.849528 0.425369
vt 0.869733 0.421216
vt 0.869734 0.423396
vt 0.868832 0.423398
vt 0.868804 0.421222
vt 0.940197 0.315488
vt 0.940684 0.313810
vt 0.941130 0.315485
vt 0.794767 0.423225
vt 0.794093 0.421713
vt 0.795050 0.421577
vt 0.844988 0.303305
vt 0.845468 0.301787
vt 0.845790 0.303323
vt 0.849963 0.421443
vt 0.850421 0.423439
vt 0.849537 0.423444
vt 0.869707 0.425511
vt 0.869257 0.427616
vt 0.868847 0.425511
vt 0.940319 0.318796
vt 0.940248 0.317143
vt 0.941136 0.317113
vt 0.941252 0.318743
vt 0.845794 0.304750
vt 0.844982 0.304747
vt 0.795170 0.424768
vt 0.795140 0.426272
vt 0.794288 0.426198
vt 0.794385 0.424743
vt 0.845242 0.300221
vt 0.846085 0.300333
vt 0.849913 0.429381
vt 0.941248 0.312173
vt 0.940333 0.312112
vt 0.830997 0.421645
vt 0.830996 0.423482
vt 0.830078 0.423469
vt 0.830087 0.421649
vt 0.811523 0.425243
vt 0.810906 0.426920
vt 0.810614 0.425248
vt 0.830050 0.428846
vt 0.830438 0.427050
vt 0.830973 0.428806
vt 0.830904 0.425293
vt 0.830022 0.425265
vt 0.811189 0.422016
vt 0.811389 0.423662
vt 0.810500 0.423667
vt 0.810228 0.422018
vt 0.810331 0.428531
vt 0.811220 0.428635
vt 0.795022 0.427904
vt 0.794050 0.427819
vt 0.868751 0.429720
vt 0.869658 0.429752
vt 0.845007 0.306338
vt 0.845927 0.306276
vt 0.118804 0.171222
vt 0.061220 0.178635
vt 0.070331 0.176920
vt 0.061189 0.172016
vt 0.820190 0.423577
vt 0.820510 0.421819
vt 0.820890 0.423564
vt 0.820349 0.425266
vt 0.821002 0.425266
vt 0.820525 0.428633
vt 0.820331 0.426920
vt 0.820993 0.426921
vt 0.127418 0.177853
vt 0.119707 0.175511
vt 0.128581 0.175564
vt 0.138924 0.180426
vt 0.128847 0.180154
vt 0.128671 0.173288
vt 0.119734 0.173396
vt 0.119733 0.171216
vt 0.127783 0.171022
vt 0.127696 0.180115
vt 0.119658 0.179752
vt 0.877418 0.427853
vt 0.878581 0.425564
vt 0.879829 0.425577
vt 0.878581 0.427875
vt 0.878671 0.423288
vt 0.879918 0.423283
vt 0.877783 0.421022
vt 0.878929 0.421003
vt 0.877696 0.430115
vt 0.878847 0.430154
vt 0.172478 0.038264
vt 0.180745 0.038264
vt 0.180745 0.046531
vt 0.172478 0.046531
vn -0.7728 -0.6140 0.1606
vn -0.7689 -0.6341 0.0818
vn 0.6193 -0.7842 0.0389
vn 0.6127 -0.7872 0.0693
vn -0.3949 0.7792 0.4866
vn -0.6284 0.7741 -0.0763
vn -0.7494 -0.5821 0.3153
vn -0.4911 -0.3289 0.8066
vn -0.6623 0.7460 -0.0688
vn -0.6395 0.7669 -0.0533
vn 0.6175 -0.7862 -0.0235
vn 0.6114 -0.7912 -0.0084
vn 0.7612 0.6471 0.0414
vn 0.7920 0.6071 -0.0647
vn 0.6305 -0.7737 0.0616
vn 0.6373 -0.4853 0.5985
vn 0.7696 0.6152 -0.1708
vn 0.7468 0.5786 -0.3279
vn 0.7321 0.6217 0.2783
vn -0.7718 -0.6355 0.0219
vn -0.7923 -0.6083 -0.0478
vn -0.6426 0.7659 -0.0221
vn -0.6376 0.7702 0.0146
vn 0.7714 0.6299 0.0901
vn 0.7385 0.6490 0.1826
vn -0.6335 0.7654 -0.1127
vn 0.6237 -0.7801 0.0500
vn 0.6001 -0.7949 0.0892
vn -0.7751 -0.6131 -0.1525
vn -0.7746 -0.6239 -0.1037
vn 0.7425 -0.6639 0.0891
vn 0.9616 -0.2461 0.1210
vn 0.3077 0.9287 0.2067
vn 0.5800 0.7476 0.3234
vn 0.9039 0.0925 -0.4176
vn 0.9691 0.0815 -0.2326
vn -0.1283 0.9814 0.1424
vn -0.0361 0.9893 0.1412
vn 0.0355 -0.9891 -0.1428
vn -0.0438 -0.9939 -0.1013
vn -0.9046 -0.0923 0.4161
vn -0.9700 -0.0645 0.2343
vn 0.9802 0.0607 -0.1884
vn 0.9640 0.0853 -0.2518
vn -0.0518 0.9901 0.1302
vn -0.0167 0.9929 0.1181
vn -0.9900 -0.0694 0.1231
vn -0.9899 -0.0614 0.1277
vn 0.0197 -0.9673 -0.2530
vn 0.0465 -0.9783 -0.2019
vn -0.1428 0.9664 0.2138
vn -0.1303 0.9604 0.2461
vn -0.9488 -0.0451 -0.3125
vn -0.9611 -0.0828 -0.2632
vn 0.0587 -0.9904 -0.1245
vn 0.9960 0.0423 -0.0790
vn -0.9952 -0.0653 0.0731
vn -0.6990 -0.0121 -0.7150
vn -0.8679 -0.0895 -0.4887
vn 0.2086 -0.9779 -0.0137
vn -0.0518 -0.9881 -0.1450
vn -0.1738 0.9802 -0.0943
vn 0.0225 0.9824 0.1852
vn 0.7025 0.0290 0.7111
vn 0.9000 0.0181 0.4355
vn 0.1654 -0.9039 -0.3945
vn 0.1419 -0.9361 -0.3218
vn 0.9812 0.0747 0.1777
vn 0.9820 0.0976 0.1617
vn 0.1196 -0.9697 -0.2128
vn 0.9822 0.0699 0.1741
vn -0.9767 -0.1075 -0.1859
vn 0.9817 -0.1902 0.0071
vn 0.9958 -0.0887 -0.0191
vn 0.1093 0.9399 0.3233
vn 0.1134 0.9500 0.2908
vn -0.9317 0.3502 -0.0962
vn -0.7208 0.6717 -0.1707
vn -0.2232 -0.9549 -0.1956
vn -0.5703 -0.7523 -0.3298
vn -0.9832 0.1233 -0.1342
vn -0.9679 0.1832 -0.1722
vn -0.0685 -0.8533 -0.5168
vn -0.0995 -0.9157 -0.3893
vn 0.1273 0.9810 0.1462
vn -0.9929 0.1026 -0.0609
vn -0.1319 -0.9790 -0.1552
vn -0.7492 -0.6156 -0.2444
vn -0.6997 -0.6478 -0.3010
vn 0.6098 -0.7816 0.1312
vn 0.5806 -0.7962 0.1702
vn 0.7561 0.5903 -0.2824
vn 0.6131 -0.7868 0.0709
vn -0.7595 -0.5930 0.2674
vn 0.7564 0.5914 0.2795
vn -0.6157 0.7652 -0.1880
vn -0.6253 0.7765 -0.0776
vn -0.7508 -0.5805 0.3152
vn 0.6306 -0.7736 0.0616
vn 0.7480 0.5770 -0.3277
usemtl polyarctic_atlas01
s 1
f 41/1/1 48/2/2 45/3/3 40/4/4
f 4/5/5 97/6/6 100/7/7 3/8/8
f 43/9/9 49/10/10 48/2/2 41/1/1
f 46/11/11 53/12/12 52/13/13 44/14/14
f 3/8/8 100/7/7 94/15/15 2/16/16
f 37/17/17 44/18/14 49/10/10 43/9/9
f 2/16/16 94/15/15 96/19/18 1/20/19
f 47/21/20 55/22/21 53/12/12 46/11/11
f 44/18/14 52/23/13 57/24/22 50/25/23
f 50/25/23 57/24/22 55/22/21 47/21/20
f 51/26/24 90/27/25 89/28/26 57/24/22
f 54/29/27 91/30/28 90/31/25 51/32/24
f 57/24/22 89/28/26 86/33/29 56/34/30
f 61/35/31 29/36/32 32/37/33 58/38/34
f 5/39/35 9/40/36 12/41/37 8/42/38
f 6/43/39 10/44/40 9/45/36 5/46/35
f 7/47/41 11/48/42 10/44/40 6/43/39
f 8/42/38 12/41/37 11/48/42 7/47/41
f 65/49/43 13/50/44 16/51/45 71/52/46
f 69/53/47 15/54/48 14/55/49 68/56/50
f 71/52/46 16/51/45 15/54/48 69/53/47
f 74/57/51 26/58/52 25/59/53 72/60/54
f 10/44/40 67/61/55 66/62/56 9/45/36
f 9/40/36 66/63/56 71/52/46 12/41/37
f 11/48/42 70/64/57 67/61/55 10/44/40
f 12/41/37 71/52/46 70/64/57 11/48/42
f 17/65/58 21/66/59 24/67/60 20/68/61
f 18/69/62 22/70/63 21/66/59 17/65/58
f 19/71/64 23/72/65 22/70/63 18/69/62
f 20/68/61 24/67/60 23/73/65 19/74/64
f 72/60/54 25/59/53 28/75/66 77/76/67
f 76/77/68 27/78/69 26/58/52 74/57/51
f 24/67/60 78/79/70 75/80/71 23/73/65
f 77/76/67 28/75/66 27/81/69 76/82/68
f 22/70/63 74/57/51 73/83/72 21/66/59
f 21/66/59 73/83/72 78/79/70 24/67/60
f 23/72/65 75/84/71 74/57/51 22/70/63
f 79/85/73 33/86/74 36/87/75 84/88/76
f 58/89/34 32/90/33 31/91/77 64/92/78
f 64/92/78 31/91/77 30/93/79 62/94/80
f 68/56/50 14/55/49 13/95/44 65/96/43
f 62/94/80 30/93/79 29/36/32 61/35/31
f 83/97/81 35/98/82 34/99/83 80/100/84
f 80/100/84 34/99/83 33/86/74 79/85/73
f 32/90/33 85/101/85 82/102/86 31/91/77
f 84/103/76 36/104/75 35/98/82 83/97/81
f 30/93/79 81/105/87 79/85/73 29/36/32
f 29/36/32 79/85/73 85/106/85 32/37/33
f 31/91/77 82/102/86 81/105/87 30/93/79
f 87/107/88 63/108/89 60/109/90 92/110/91
f 48/111/2 49/112/10 50/113/23 47/114/20
f 38/115/92 39/116/93 40/117/4 37/118/17
f 70/119/57 71/120/46 69/121/47
f 79/122/73 84/123/76 85/124/85
f 73/125/72 74/126/51 72/127/54
f 44/128/14 45/129/3 46/130/11
f 42/131/94 43/132/9 41/133/1
f 66/134/56 67/135/55 68/136/50 65/137/43
f 72/127/54 77/138/67 78/139/70 73/125/72
f 81/140/87 82/141/86 83/142/81 80/143/84
f 74/126/51 75/144/71 76/145/68
f 44/146/14 50/113/23 49/112/10
f 65/147/43 71/120/46 66/148/56
f 45/129/3 48/111/2 47/114/20 46/130/11
f 39/116/93 42/131/94 41/133/1 40/117/4
f 67/135/55 70/119/57 69/121/47 68/136/50
f 52/149/13 53/150/12 54/151/27 51/152/24
f 63/153/89 64/154/78 62/155/80
f 51/156/24 57/157/22 52/158/13
f 53/150/12 55/159/21 56/160/30 54/151/27
f 59/161/95 60/162/90 61/163/31 58/164/34
f 58/165/34 64/154/78 59/166/95
f 55/159/21 57/157/22 56/160/30
f 60/162/90 63/153/89 62/155/80 61/163/31
f 82/141/86 85/167/85 84/168/76 83/142/81
f 37/169/17 43/132/9 38/170/92
f 79/122/73 81/140/87 80/143/84
f 75/171/71 78/139/70 77/138/67 76/172/68
f 40/4/4 45/3/3 44/14/14 37/173/17
f 90/27/25 59/174/95 64/92/78 88/175/96
f 88/175/96 64/92/78 63/108/89 87/107/88
f 92/110/91 60/109/90 59/176/95 90/31/25
f 92/177/91 90/178/25 91/179/28
f 87/180/88 92/177/91 91/179/28 86/181/29
f 90/182/25 88/183/96 89/184/26
f 88/183/96 87/180/88 86/181/29 89/184/26
f 56/34/30 86/33/29 91/30/28 54/29/27
f 98/185/97 43/9/9 42/186/94 99/187/98
f 1/188/19 96/189/18 97/6/6 4/5/5
f 93/190/99 39/191/93 38/192/92 95/193/100
f 95/194/100 38/195/92 43/9/9 98/185/97
f 98/196/97 99/197/98 100/198/7 97/199/6
f 99/197/98 93/200/99 94/201/15 100/198/7
f 93/200/99 95/202/100 96/203/18 94/201/15
f 95/204/100 98/196/97 97/199/6 96/205/18
f 99/187/98 42/186/94 39/191/93 93/190/99
f 3/206/8 2/207/16 1/208/19 4/209/5
