# Blender v2.79 (sub 0) OBJ File: 'polyarctic_export_OBJ.blend'
# www.blender.org
mtllib arctic_branch06_m.mtl
o arctic_branch_06_CUtree.017
v 0.017226 0.098491 0.769894
v 0.048945 0.067062 0.776027
v 0.016993 0.036562 0.784987
v -0.014726 0.067991 0.778854
v 0.000711 0.009956 0.427624
v 0.027464 -0.016969 0.431015
v 0.000342 -0.043333 0.435660
v -0.026412 -0.016408 0.432270
v -0.000058 -0.016112 0.075608
v 0.021661 -0.038419 0.074772
v -0.000593 -0.060148 0.076387
v -0.022312 -0.037841 0.077223
v -0.038794 -0.011811 -0.275822
v -0.022148 -0.028953 -0.279538
v -0.039568 -0.045709 -0.280268
v -0.056213 -0.028567 -0.276551
v -0.048485 0.054832 -0.624480
v -0.061002 0.043187 -0.626526
v -0.003900 0.011928 0.510148
v 0.014590 0.002254 0.519541
v 0.009966 -0.017270 0.508537
v -0.008524 -0.007597 0.499143
v 0.137081 0.087891 0.313640
v 0.155393 0.080063 0.320286
v 0.152959 0.063554 0.307545
v 0.134647 0.071382 0.300899
v 0.233343 0.254268 0.147995
v 0.251467 0.249207 0.151308
v 0.249782 0.234932 0.138720
v 0.231658 0.239993 0.135407
v 0.292563 0.395152 -0.058357
v 0.309215 0.391290 -0.056295
v 0.307258 0.377467 -0.066372
v 0.290605 0.381329 -0.068435
v 0.003570 -0.021529 0.219418
v 0.015185 -0.037536 0.215808
v 0.001123 -0.049525 0.223724
v -0.010492 -0.033519 0.227334
v -0.091137 -0.045495 0.017185
v -0.080885 -0.060694 0.011682
v -0.095991 -0.072022 0.014825
v -0.106243 -0.056823 0.020328
v -0.126431 0.037257 -0.188744
v -0.117596 0.023661 -0.196965
v -0.132809 0.013709 -0.196856
v -0.141645 0.027305 -0.188635
v -0.204988 0.122890 -0.385092
v -0.196933 0.110409 -0.393800
v -0.210954 0.100493 -0.392556
v -0.219008 0.112973 -0.383848
v -0.025990 -0.042869 -0.070655
v -0.016270 -0.034207 -0.059176
v -0.001907 -0.039369 -0.067441
v -0.011627 -0.048032 -0.078920
v -0.034132 0.120726 -0.186968
v -0.024428 0.126185 -0.173713
v -0.010106 0.121818 -0.182401
v -0.019810 0.116359 -0.195655
v -0.011866 0.317754 -0.229034
v -0.002935 0.318459 -0.214276
v 0.011150 0.312846 -0.222532
v 0.002219 0.312141 -0.237290
v 0.068923 0.498045 -0.267762
v 0.077373 0.497474 -0.252771
v 0.090685 0.489825 -0.260566
v 0.082235 0.490396 -0.275557
v -0.048060 -0.004355 -0.353190
v -0.033976 -0.013622 -0.349692
v -0.042250 -0.027971 -0.354394
v -0.056334 -0.018704 -0.357891
v 0.005096 0.016457 -0.511413
v 0.019755 0.007625 -0.509521
v 0.012759 -0.005758 -0.517792
v -0.001900 0.003074 -0.519684
v 0.060064 0.114128 -0.636318
v 0.075649 0.106853 -0.637096
v 0.069584 0.095032 -0.648048
v 0.053998 0.102307 -0.647269
v 0.085054 0.216171 -0.770768
v 0.100920 0.209761 -0.772682
v 0.094726 0.197540 -0.783109
v 0.078860 0.203949 -0.781196
v -0.060630 0.065450 -0.617402
v -0.072796 0.054748 -0.623226
v -0.066795 0.137904 -0.737994
v -0.054661 0.128432 -0.745708
v -0.066877 0.118997 -0.753338
v -0.079011 0.128470 -0.745624
v -0.061074 0.241682 -0.834398
v -0.048938 0.232633 -0.842602
v -0.061152 0.223769 -0.850892
v -0.073288 0.232818 -0.842688
v -0.064615 0.330407 -0.947073
v -0.052475 0.321002 -0.954858
v -0.064677 0.311272 -0.962131
v -0.076817 0.320677 -0.954346
vt 0.787203 0.435944
vt 0.820813 0.437486
vt 0.820681 0.441084
vt 0.787042 0.440052
vt 0.787423 0.431840
vt 0.820998 0.433878
vt 0.786951 0.444353
vt 0.820626 0.444634
vt 0.820627 0.448274
vt 0.786952 0.448620
vt 0.855019 0.439042
vt 0.854911 0.441944
vt 0.855189 0.436042
vt 0.854850 0.445076
vt 0.854853 0.448065
vt 0.889221 0.440636
vt 0.889145 0.442839
vt 0.889341 0.438427
vt 0.889111 0.445175
vt 0.889125 0.447565
vt 0.922808 0.442143
vt 0.922943 0.443739
vt 0.923042 0.440528
vt 0.922722 0.445359
vt 0.922891 0.447012
vt 0.887128 0.397293
vt 0.912204 0.396972
vt 0.912250 0.399024
vt 0.887156 0.399348
vt 0.887101 0.395239
vt 0.912168 0.394853
vt 0.887078 0.393033
vt 0.912152 0.392848
vt 0.887074 0.390800
vt 0.912151 0.390839
vt 0.936928 0.396283
vt 0.936979 0.398008
vt 0.936890 0.394580
vt 0.936871 0.392813
vt 0.936868 0.391018
vt 0.960524 0.395820
vt 0.960558 0.397413
vt 0.960500 0.394217
vt 0.960484 0.392636
vt 0.960480 0.391042
vt 0.895411 0.427157
vt 0.917229 0.427360
vt 0.917221 0.429141
vt 0.895394 0.428902
vt 0.895423 0.425412
vt 0.917241 0.425493
vt 0.895379 0.430915
vt 0.917221 0.430935
vt 0.917227 0.432719
vt 0.895385 0.432851
vt 0.939439 0.427431
vt 0.939426 0.429107
vt 0.939458 0.425773
vt 0.939426 0.430899
vt 0.939434 0.432644
vt 0.960895 0.427663
vt 0.960889 0.429214
vt 0.960912 0.426043
vt 0.960895 0.430766
vt 0.960912 0.432374
vt 0.850162 0.350083
vt 0.869036 0.350185
vt 0.869033 0.351772
vt 0.850164 0.351820
vt 0.850168 0.348422
vt 0.869041 0.348520
vt 0.850173 0.353403
vt 0.869030 0.353360
vt 0.869027 0.354965
vt 0.850181 0.355061
vt 0.888004 0.350074
vt 0.888010 0.351759
vt 0.888004 0.348435
vt 0.888009 0.353393
vt 0.888014 0.355061
vt 0.907149 0.350121
vt 0.907145 0.351748
vt 0.907152 0.348472
vt 0.907148 0.353301
vt 0.907160 0.354854
vt 0.913395 0.340284
vt 0.929827 0.340324
vt 0.929830 0.341937
vt 0.913387 0.341801
vt 0.913392 0.338766
vt 0.929824 0.338642
vt 0.913373 0.343530
vt 0.929832 0.343562
vt 0.929833 0.345186
vt 0.913373 0.345197
vt 0.946391 0.340273
vt 0.946384 0.341870
vt 0.946401 0.338700
vt 0.946383 0.343554
vt 0.946386 0.345197
vt 0.962430 0.340360
vt 0.962431 0.341910
vt 0.962435 0.338775
vt 0.962440 0.343463
vt 0.962452 0.345094
vt 0.936460 0.442504
vt 0.936415 0.444138
vt 0.936504 0.440846
vt 0.936364 0.445718
vt 0.936324 0.447301
vt 0.950128 0.442865
vt 0.950081 0.444459
vt 0.950177 0.441278
vt 0.950031 0.446129
vt 0.949987 0.447779
vt 0.963530 0.443270
vt 0.963486 0.444864
vt 0.963575 0.441655
vt 0.963449 0.446434
vt 0.963419 0.448004
vt 0.922478 0.288264
vt 0.930745 0.288264
vt 0.930745 0.296531
vt 0.922478 0.296531
vn 0.0297 0.9322 0.3606
vn -0.0033 0.9866 -0.1631
vn -0.9994 -0.0301 0.0156
vn -0.7924 0.1474 0.5919
vn 0.8457 0.1236 0.5192
vn 0.9981 -0.0533 -0.0309
vn 0.0237 -0.6617 0.7494
vn -0.0169 -0.9905 0.1362
vn 0.0349 0.9988 -0.0331
vn -0.9991 -0.0085 0.0418
vn 0.9972 -0.0304 -0.0687
vn 0.0120 -0.9999 0.0028
vn 0.0049 0.9931 0.1167
vn -0.9971 -0.0363 0.0668
vn 0.9928 -0.0537 -0.1067
vn -0.0315 -0.9893 -0.1422
vn 0.0074 0.9322 0.3619
vn -0.9973 -0.0707 0.0169
vn 0.9941 -0.0633 -0.0878
vn -0.0254 -0.9268 -0.3748
vn -0.4251 0.9040 0.0453
vn -0.5411 0.8186 0.1924
vn -0.6476 -0.3599 -0.6716
vn -0.7110 -0.3024 -0.6348
vn 0.7173 0.3065 0.6257
vn 0.7494 0.2156 0.6260
vn 0.4316 -0.9004 -0.0543
vn 0.5267 -0.8215 -0.2183
vn -0.5705 0.7344 0.3677
vn -0.7352 -0.3338 -0.5900
vn 0.7281 0.3515 0.5884
vn 0.6496 -0.6926 -0.3134
vn -0.6022 0.7291 0.3252
vn -0.7631 -0.4063 -0.5026
vn 0.7653 0.4119 0.4946
vn 0.6047 -0.7234 -0.3331
vn 0.0847 0.9842 -0.1553
vn 0.1334 0.9861 0.0993
vn -0.9509 0.0415 0.3066
vn -0.9048 0.1408 0.4017
vn 0.9014 -0.1412 -0.4092
vn 0.9065 -0.2618 -0.3313
vn -0.0880 -0.9850 0.1479
vn -0.2161 -0.9733 -0.0774
vn 0.2845 0.9105 0.3000
vn -0.9355 0.1442 0.3226
vn 0.9365 -0.1340 -0.3240
vn -0.2054 -0.9206 -0.3321
vn 0.2441 0.9208 0.3041
vn -0.9076 0.1064 0.4062
vn 0.9056 -0.1042 -0.4111
vn -0.2459 -0.9187 -0.3090
vn -0.9810 -0.1420 -0.1316
vn -0.9630 -0.0757 -0.2584
vn 0.1479 -0.4031 -0.9031
vn 0.1888 -0.5625 -0.8049
vn -0.1889 0.5640 0.8039
vn -0.2491 0.3988 0.8825
vn 0.9810 0.1435 0.1306
vn 0.9940 0.0095 0.1090
vn -0.9463 0.2055 -0.2495
vn 0.1431 -0.2445 -0.9590
vn -0.2677 0.2708 0.9246
vn 0.9396 -0.1977 0.2793
vn -0.8938 0.3374 -0.2954
vn 0.1997 -0.2908 -0.9357
vn -0.1998 0.2905 0.9358
vn 0.8936 -0.3377 0.2955
vn -0.2380 0.9700 0.0486
vn -0.3542 0.9030 0.2431
vn -0.8559 -0.2721 -0.4397
vn -0.9178 -0.2088 -0.3377
vn 0.9184 0.2092 0.3357
vn 0.9192 0.0836 0.3847
vn 0.2386 -0.9698 -0.0506
vn 0.2814 -0.9186 -0.2775
vn -0.3576 0.7905 0.4972
vn -0.8820 -0.2015 -0.4259
vn 0.8933 0.1780 0.4127
vn 0.4266 -0.7765 -0.4637
vn -0.3972 0.7650 0.5069
vn -0.9060 -0.2387 -0.3495
vn 0.9059 0.2385 0.3497
vn 0.3972 -0.7652 -0.5067
vn -0.0143 0.7759 0.6307
vn -0.9983 -0.0458 -0.0349
vn 0.9969 -0.0619 -0.0490
vn -0.0279 -0.7773 -0.6285
vn 0.0168 0.7352 0.6776
vn -0.9992 0.0335 0.0207
vn 0.9995 0.0175 0.0269
vn 0.0122 -0.7357 -0.6771
vn 0.0026 0.7857 0.6185
vn -0.9997 -0.0135 0.0211
vn 0.9997 0.0133 -0.0209
vn -0.0025 -0.7859 -0.6183
usemtl polyarctic_atlas01
s 1
f 1/1/1 5/2/2 8/3/3 4/4/4
f 2/5/5 6/6/6 5/2/2 1/1/1
f 3/7/7 7/8/8 6/9/6 2/10/5
f 4/4/4 8/3/3 7/8/8 3/7/7
f 5/2/2 9/11/9 12/12/10 8/3/3
f 6/6/6 10/13/11 9/11/9 5/2/2
f 7/8/8 11/14/12 10/15/11 6/9/6
f 8/3/3 12/12/10 11/14/12 7/8/8
f 9/11/9 13/16/13 16/17/14 12/12/10
f 10/13/11 14/18/15 13/16/13 9/11/9
f 11/14/12 15/19/16 14/20/15 10/15/11
f 12/12/10 16/17/14 15/19/16 11/14/12
f 13/16/13 83/21/17 84/22/18 16/17/14
f 14/18/15 17/23/19 83/21/17 13/16/13
f 15/19/16 18/24/20 17/25/19 14/20/15
f 16/17/14 84/22/18 18/24/20 15/19/16
f 19/26/21 23/27/22 26/28/23 22/29/24
f 20/30/25 24/31/26 23/27/22 19/26/21
f 21/32/27 25/33/28 24/31/26 20/30/25
f 22/34/24 26/35/23 25/33/28 21/32/27
f 23/27/22 27/36/29 30/37/30 26/28/23
f 24/31/26 28/38/31 27/36/29 23/27/22
f 25/33/28 29/39/32 28/38/31 24/31/26
f 26/35/23 30/40/30 29/39/32 25/33/28
f 27/36/29 31/41/33 34/42/34 30/37/30
f 28/38/31 32/43/35 31/41/33 27/36/29
f 29/39/32 33/44/36 32/43/35 28/38/31
f 30/40/30 34/45/34 33/44/36 29/39/32
f 35/46/37 39/47/38 42/48/39 38/49/40
f 36/50/41 40/51/42 39/47/38 35/46/37
f 37/52/43 41/53/44 40/54/42 36/55/41
f 38/49/40 42/48/39 41/53/44 37/52/43
f 39/47/38 43/56/45 46/57/46 42/48/39
f 40/51/42 44/58/47 43/56/45 39/47/38
f 41/53/44 45/59/48 44/60/47 40/54/42
f 42/48/39 46/57/46 45/59/48 41/53/44
f 43/56/45 47/61/49 50/62/50 46/57/46
f 44/58/47 48/63/51 47/61/49 43/56/45
f 45/59/48 49/64/52 48/65/51 44/60/47
f 46/57/46 50/62/50 49/64/52 45/59/48
f 51/66/53 55/67/54 58/68/55 54/69/56
f 52/70/57 56/71/58 55/67/54 51/66/53
f 53/72/59 57/73/60 56/74/58 52/75/57
f 54/69/56 58/68/55 57/73/60 53/72/59
f 55/67/54 59/76/61 62/77/62 58/68/55
f 56/71/58 60/78/63 59/76/61 55/67/54
f 57/73/60 61/79/64 60/80/63 56/74/58
f 58/68/55 62/77/62 61/79/64 57/73/60
f 59/76/61 63/81/65 66/82/66 62/77/62
f 60/78/63 64/83/67 63/81/65 59/76/61
f 61/79/64 65/84/68 64/85/67 60/80/63
f 62/77/62 66/82/66 65/84/68 61/79/64
f 67/86/69 71/87/70 74/88/71 70/89/72
f 68/90/73 72/91/74 71/87/70 67/86/69
f 69/92/75 73/93/76 72/94/74 68/95/73
f 70/89/72 74/88/71 73/93/76 69/92/75
f 71/87/70 75/96/77 78/97/78 74/88/71
f 72/91/74 76/98/79 75/96/77 71/87/70
f 73/93/76 77/99/80 76/100/79 72/94/74
f 74/88/71 78/97/78 77/99/80 73/93/76
f 75/96/77 79/101/81 82/102/82 78/97/78
f 76/98/79 80/103/83 79/101/81 75/96/77
f 77/99/80 81/104/84 80/105/83 76/100/79
f 78/97/78 82/102/82 81/104/84 77/99/80
f 83/21/17 85/106/85 88/107/86 84/22/18
f 17/23/19 86/108/87 85/106/85 83/21/17
f 18/24/20 87/109/88 86/110/87 17/25/19
f 84/22/18 88/107/86 87/109/88 18/24/20
f 85/106/85 89/111/89 92/112/90 88/107/86
f 86/108/87 90/113/91 89/111/89 85/106/85
f 87/109/88 91/114/92 90/115/91 86/110/87
f 88/107/86 92/112/90 91/114/92 87/109/88
f 89/111/89 93/116/93 96/117/94 92/112/90
f 90/113/91 94/118/95 93/116/93 89/111/89
f 91/114/92 95/119/96 94/120/95 90/115/91
f 92/112/90 96/117/94 95/119/96 91/114/92
f 3/121/7 2/122/5 1/123/1 4/124/4
